<svg xmlns="http://www.w3.org/2000/svg" width="570" height="198" viewBox="0 0 570 198" role="img" aria-label="Laboratório">
  <defs>
    <linearGradient id="b" x1="0" y1="0" x2="1" y2="1">
      <stop offset="0%" stop-color="#070A10"/>
      <stop offset="100%" stop-color="#111E33"/>
    </linearGradient>
    <radialGradient id="g" cx="88%" cy="14%" r="72%">
      <stop offset="0%" stop-color="#36577F" stop-opacity=".22"/>
      <stop offset="100%" stop-color="#36577F" stop-opacity="0"/>
    </radialGradient>
  </defs>
  <rect x="1.5" y="1.5" width="567" height="195" rx="16" fill="url(#b)" stroke="#CDBB82" stroke-opacity=".28"/>
  <rect x="1.5" y="1.5" width="567" height="195" rx="16" fill="url(#g)"/>
  <path d="M20 20H98M20 20V64M550 134V178H472" fill="none" stroke="#CDBB82" stroke-opacity=".18"/>
  <circle cx="518" cy="45" r="25" fill="#0A111E" stroke="#CDBB82" stroke-opacity=".28"/>
  <text x="518" y="53" text-anchor="middle" fill="#D8C994" font-family="Georgia, serif" font-size="20">⚗</text>
  <text x="31" y="51" fill="#F0E7D3" font-family="Georgia, serif" font-size="24" font-weight="700">Laboratório</text>
  <text x="31" y="78" fill="#CDBB82" font-family="Arial, sans-serif" font-size="11" font-weight="700" letter-spacing="1.4">REPOSITÓRIOS E EXPERIMENTOS</text>
  <text x="31" y="111" fill="#BCC5D4" font-family="Arial, sans-serif" font-size="13">Protótipos, estudos, colaborações e projetos em evolução.</text>
  <rect x="31.0" y="144" width="41.6" height="25" rx="12.5" fill="#111B2C" stroke="#CDBB82" stroke-opacity=".18"/>
  <text x="51.8" y="161" text-anchor="middle" fill="#CFC6B2" font-family="Arial, sans-serif" font-size="11">Web</text><rect x="81.6" y="144" width="77.6" height="25" rx="12.5" fill="#111B2C" stroke="#CDBB82" stroke-opacity=".18"/>
  <text x="120.4" y="161" text-anchor="middle" fill="#CFC6B2" font-family="Arial, sans-serif" font-size="11">Back-end</text><rect x="168.2" y="144" width="77.6" height="25" rx="12.5" fill="#111B2C" stroke="#CDBB82" stroke-opacity=".18"/>
  <text x="207.0" y="161" text-anchor="middle" fill="#CFC6B2" font-family="Arial, sans-serif" font-size="11">Pesquisa</text>
  <text x="536" y="166" text-anchor="end" fill="#D7C58C" font-family="Arial, sans-serif" font-size="14">abrir →</text>
</svg>